<?xml version="1.0" encoding="UTF-8" standalone="no"?>
<!-- Created with Inkscape (http://www.inkscape.org/) -->

<svg
   xmlns:dc="http://purl.org/dc/elements/1.1/"
   xmlns:cc="http://creativecommons.org/ns#"
   xmlns:rdf="http://www.w3.org/1999/02/22-rdf-syntax-ns#"
   xmlns:svg="http://www.w3.org/2000/svg"
   xmlns="http://www.w3.org/2000/svg"
   xmlns:sodipodi="http://sodipodi.sourceforge.net/DTD/sodipodi-0.dtd"
   xmlns:inkscape="http://www.inkscape.org/namespaces/inkscape"
   width="32"
   height="32"
   viewBox="0 0 8.4666665 8.4666669"
   version="1.1"
   id="svg8"
   inkscape:version="0.92.4 (5da689c313, 2019-01-14)"
   sodipodi:docname="21. Management business, data, report, user, admin, administrator.svg">
  <defs
     id="defs2">
    <pattern
       y="0"
       x="0"
       height="6"
       width="6"
       patternUnits="userSpaceOnUse"
       id="EMFhbasepattern" />
    <pattern
       y="0"
       x="0"
       height="6"
       width="6"
       patternUnits="userSpaceOnUse"
       id="EMFhbasepattern-3" />
    <pattern
       y="0"
       x="0"
       height="6"
       width="6"
       patternUnits="userSpaceOnUse"
       id="EMFhbasepattern-2" />
    <pattern
       y="0"
       x="0"
       height="6"
       width="6"
       patternUnits="userSpaceOnUse"
       id="EMFhbasepattern-1" />
    <pattern
       y="0"
       x="0"
       height="6"
       width="6"
       patternUnits="userSpaceOnUse"
       id="EMFhbasepattern-5" />
  </defs>
  <sodipodi:namedview
     id="base"
     pagecolor="#ffffff"
     bordercolor="#666666"
     borderopacity="1.0"
     inkscape:pageopacity="0.0"
     inkscape:pageshadow="2"
     inkscape:zoom="3.9999998"
     inkscape:cx="10.180105"
     inkscape:cy="6.948789"
     inkscape:document-units="px"
     inkscape:current-layer="layer1"
     showgrid="false"
     units="px"
     inkscape:window-width="1280"
     inkscape:window-height="658"
     inkscape:window-x="-8"
     inkscape:window-y="-8"
     inkscape:window-maximized="1"
     showguides="true"
     guidecolor="#af0000"
     guideopacity="0.49803922"
     guidehicolor="#ff4b4b"
     guidehiopacity="0.49803922"
     inkscape:snap-global="true">
    <inkscape:grid
       type="xygrid"
       id="grid815"
       empspacing="1"
       originx="0"
       originy="0"
       spacingx="0"
       spacingy="0"
       snapvisiblegridlinesonly="true"
       visible="true"
       enabled="true"
       dotted="false" />
  </sodipodi:namedview>
  <metadata
     id="metadata5">
    <rdf:RDF>
      <cc:Work
         rdf:about="">
        <dc:format>image/svg+xml</dc:format>
        <dc:type
           rdf:resource="http://purl.org/dc/dcmitype/StillImage" />
        <dc:title />
      </cc:Work>
    </rdf:RDF>
  </metadata>
  <g
     inkscape:label="Guides"
     inkscape:groupmode="layer"
     id="layer1"
     transform="translate(0,-288.53332)">
    <path
       style="color:#000000;font-style:normal;font-variant:normal;font-weight:normal;font-stretch:normal;font-size:medium;line-height:normal;font-family:sans-serif;font-variant-ligatures:normal;font-variant-position:normal;font-variant-caps:normal;font-variant-numeric:normal;font-variant-alternates:normal;font-feature-settings:normal;text-indent:0;text-align:start;text-decoration:none;text-decoration-line:none;text-decoration-style:solid;text-decoration-color:#000000;letter-spacing:normal;word-spacing:normal;text-transform:none;writing-mode:lr-tb;direction:ltr;text-orientation:mixed;dominant-baseline:auto;baseline-shift:baseline;text-anchor:start;white-space:normal;shape-padding:0;clip-rule:nonzero;display:inline;overflow:visible;visibility:visible;opacity:1;isolation:auto;mix-blend-mode:normal;color-interpolation:sRGB;color-interpolation-filters:linearRGB;solid-color:#000000;solid-opacity:1;vector-effect:none;fill:#000000;fill-opacity:1;fill-rule:nonzero;stroke:none;stroke-width:0.26458332;stroke-linecap:round;stroke-linejoin:round;stroke-miterlimit:4;stroke-dasharray:none;stroke-dashoffset:0;stroke-opacity:1;paint-order:normal;color-rendering:auto;image-rendering:auto;shape-rendering:auto;text-rendering:auto;enable-background:accumulate"
       d="m 5.8643481,289.0625 c -0.616356,0 -1.1188462,0.4868 -1.118844,1.07913 -1.3e-6,0.34224 0.1704875,0.64626 0.4311684,0.84454 -0.2057121,0.11443 -0.3872341,0.27515 -0.5366403,0.46109 -0.2574723,0.32043 -0.4200791,0.72172 -0.4632315,1.13657 H 3.0393935 v -0.12132 h 1.070749 v -2.20436 H 0.91477166 v 0.20789 1.99647 H 1.9863639 v 0.0307 0.0906 H 0.52916666 v 8.3e-4 0.20547 8.3e-4 0.8146 2.86527 H 7.9375 v -3.88616 H 7.93581 v -8.3e-4 H 7.5552728 c -0.043154,-0.41485 -0.2057578,-0.81613 -0.4632315,-1.13655 -0.1496529,-0.18625 -0.3322471,-0.34736 -0.5391714,-0.46191 0.2601486,-0.19831 0.4311697,-0.50189 0.4311684,-0.84374 2.2e-6,-0.59233 -0.5033322,-1.07912 -1.1196878,-1.07912 z m 0,0.41579 c 0.3815726,0 0.6893644,0.29359 0.6893631,0.66334 1.3e-6,0.36332 -0.2976309,0.65254 -0.6699562,0.66252 -0.00657,-9e-5 -0.012814,-0.002 -0.019406,-0.002 -0.00659,0 -0.012835,0.002 -0.019406,0.002 -0.3722186,-0.009 -0.6657389,-0.29921 -0.6657376,-0.66252 -1.3e-6,-0.36975 0.3035715,-0.66334 0.6851445,-0.66334 z m -4.5184085,1.19563 H 3.676443 v 1.37599 H 1.3459396 Z m 4.5049082,0.54602 c 0.00461,7e-5 0.00887,0.002 0.0135,0.002 0.00463,0 0.00889,-0.002 0.0135,-0.002 0.3244571,0.005 0.6365379,0.18344 0.8733056,0.47809 0.1948816,0.24254 0.2743489,0.56984 0.3189464,0.8858 H 4.6619699 c 0.044598,-0.31595 0.1240653,-0.64326 0.3189464,-0.8858 0.2367556,-0.29464 0.5455808,-0.47314 0.8699315,-0.47809 z m -4.88966904,1.77805 H 4.1582376 7.5038005 v 0.19334 H 0.96117876 Z m -0.00168,0.60751 H 7.5038079 v 2.44948 H 0.95949876 Z"
       id="circle1001-5"
       inkscape:connector-curvature="0" />
  </g>
</svg>
