<?xml version="1.0" encoding="iso-8859-1"?>
<!-- Generator: Adobe Illustrator 21.0.0, SVG Export Plug-In . SVG Version: 6.00 Build 0)  -->
<svg version="1.1" fill="#ffffff" id="Layer_1" xmlns="http://www.w3.org/2000/svg" xmlns:xlink="http://www.w3.org/1999/xlink" x="0px" y="0px"
	 viewBox="0 0 100.353 100.352" style="enable-background:new 0 0 100.353 100.352;" xml:space="preserve">
<g>
	<path d="M51.651,52.942c-18.811,0-34.115,15.303-34.115,34.114c0,0.829,0.671,1.5,1.5,1.5h65.223c0.829,0,1.5-0.671,1.5-1.5
		C85.758,68.245,70.458,52.942,51.651,52.942z M69.889,85.556H33.771V61.612c2.338-1.647,4.91-2.982,7.658-3.941v12.937
		c0,0.829,0.671,1.5,1.5,1.5h17.525c0.829,0,1.5-0.671,1.5-1.5V57.699c2.869,1.01,5.545,2.43,7.96,4.188
		c-0.014,0.083-0.026,0.166-0.026,0.253v23.416H69.889z M58.954,56.813v12.294H44.429V56.794c2.319-0.553,4.736-0.852,7.222-0.852
		C54.166,55.942,56.611,56.247,58.954,56.813z M30.771,64.017v21.539h-10.2C20.978,77.03,24.837,69.4,30.771,64.017z M72.889,85.556
		V64.35c5.727,5.362,9.436,12.856,9.833,21.206H72.889z"/>
	<path d="M51.079,49.558c10.844,0,19.666-8.819,19.666-19.658c0-10.844-8.822-19.666-19.666-19.666
		c-10.845,0-19.667,8.822-19.667,19.666C31.411,40.74,40.234,49.558,51.079,49.558z M51.079,13.234c7.01,0,13.012,4.357,15.469,10.5
		c-2.642-1.182-6.967-3.435-9.736-4.944c-0.42-0.229-0.926-0.243-1.359-0.039c-0.067,0.032-6.738,3.187-11.071,4.993l-0.412,0.172
		c-3.228,1.349-5.32,2.22-9.225,2.669C36.286,18.979,43.024,13.234,51.079,13.234z M34.425,29.637
		c4.759-0.47,7.167-1.475,10.702-2.953l0.41-0.171c3.569-1.488,8.675-3.865,10.511-4.726c2.282,1.23,9.031,4.815,11.478,5.54
		c0.131,0.841,0.219,1.695,0.219,2.572c0,9.186-7.476,16.658-16.666,16.658c-9.19,0-16.667-7.473-16.667-16.658
		C34.411,29.812,34.423,29.726,34.425,29.637z"/>
</g>
</svg>
