<?xml version="1.0" encoding="utf-8"?>
<!-- Generator: Adobe Illustrator 23.0.3, SVG Export Plug-In . SVG Version: 6.00 Build 0)  -->
<svg version="1.1" id="Capa_1" xmlns="http://www.w3.org/2000/svg" xmlns:xlink="http://www.w3.org/1999/xlink" x="0px" y="0px"
	 viewBox="0 0 328.9 328.9" style="enable-background:new 0 0 328.9 328.9;" xml:space="preserve">
<style type="text/css">
	.st0{fill:url(#SVGID_1_);}
</style>
<linearGradient id="SVGID_1_" gradientUnits="userSpaceOnUse" x1="0" y1="164.4555" x2="328.911" y2="164.4555">
	<stop  offset="0" style="stop-color:#1245C6"/>
	<stop  offset="1" style="stop-color:#9909B7"/>
</linearGradient>
<path class="st0" d="M310.2,18.7C297.7,6.2,282.7,0,265,0H64C46.3,0,31.2,6.2,18.7,18.7C6.2,31.2,0,46.3,0,64v201
	c0,17.5,6.2,32.6,18.7,45.1c12.5,12.6,27.6,18.8,45.3,18.8h201c17.7,0,32.8-6.3,45.2-18.8c12.5-12.6,18.7-27.6,18.7-45.1V64
	C328.9,46.3,322.7,31.2,310.2,18.7z M292.4,265c0,7.6-2.7,14.1-8,19.4c-5.3,5.3-11.8,8-19.4,8H64c-7.6,0-14.1-2.7-19.4-8
	c-5.3-5.3-8-11.8-8-19.4V64c0-7.6,2.7-14.1,8-19.4c5.3-5.3,11.8-8,19.4-8h201c7.6,0,14.1,2.7,19.4,8c5.3,5.3,8,11.8,8,19.4V265z
	 M246.7,146.2H82.2c-2.7,0-4.9,0.9-6.6,2.6c-1.7,1.7-2.6,3.9-2.6,6.6v18.3c0,2.7,0.9,4.9,2.6,6.6c1.7,1.7,3.9,2.6,6.6,2.6h164.5
	c2.7,0,4.9-0.9,6.6-2.6c1.7-1.7,2.6-3.9,2.6-6.6v-18.3c0-2.7-0.9-4.9-2.6-6.6C251.5,147,249.3,146.2,246.7,146.2z"/>
</svg>
