<?xml version="1.0" encoding="UTF-8" standalone="no"?> <svg xmlns="http://www.w3.org/2000/svg" viewBox="0 0 83.16 85.97"><defs><style>.cls-1{isolation:isolate;}.cls-2{fill:#faf1ce;}.cls-3{fill:#371438;}.cls-4{fill:#e54545;}.cls-5{fill:#dd8136;opacity:0.5;mix-blend-mode:multiply;}.cls-6{fill:#fff;}</style></defs><title>Asset 12</title><g class="cls-1"><g id="Layer_2" data-name="Layer 2"><g id="Layer_1-2" data-name="Layer 1"><path class="cls-2" d="M51.65,13.61A6.35,6.35,0,1,1,44.8,7.79,6.36,6.36,0,0,1,51.65,13.61Z"/><path class="cls-2" d="M46.17,17.14a6.35,6.35,0,1,1-.72-9A6.35,6.35,0,0,1,46.17,17.14Z"/><path class="cls-3" d="M40.07,20.37l-.22,0A7.47,7.47,0,1,1,43,5.74a1.12,1.12,0,1,1-.5,2.18,5.24,5.24,0,1,0-2.2,10.24,1.12,1.12,0,0,1-.22,2.21Z"/><circle class="cls-2" cx="48" cy="7.89" r="5.24" transform="translate(-0.48 3.93) rotate(-4.66)"/><path class="cls-3" d="M48,14.24a6.28,6.28,0,0,1-4.11-1.51,6.36,6.36,0,0,1,3.6-11.18A6.28,6.28,0,0,1,52.11,3a6.36,6.36,0,0,1,.73,9,6.27,6.27,0,0,1-4.33,2.22A4.52,4.52,0,0,1,48,14.24ZM48,3.77h-.34A4.12,4.12,0,1,0,48.33,12,4.12,4.12,0,0,0,48,3.77Z"/><path class="cls-2" d="M59.23,8.92a2.74,2.74,0,1,1-.31-3.86A2.74,2.74,0,0,1,59.23,8.92Z"/><path class="cls-4" d="M31,15.92a.39.39,0,0,0-.6.11L1.5,58c-1.85,2.19,3.23,9.5,12.27,17.12s17.12,11.36,19,9.17L69.32,48.82a.4.4,0,0,0,0-.61Z"/><path class="cls-4" d="M11.22,43.84,1.5,58c-1.85,2.19,3.23,9.5,12.27,17.12s17.12,11.36,19,9.17L69.32,48.82a.4.4,0,0,0,0-.61L31,15.92a.39.39,0,0,0-.6.11l-5.49,8"/><line class="cls-4" x1="16.43" y1="36.27" x2="11.22" y2="43.84"/><line class="cls-4" x1="20.97" y1="29.68" x2="16.43" y2="36.27"/><line class="cls-4" x1="24.88" y1="24.01" x2="20.97" y2="29.68"/><path class="cls-2" d="M13.77,75.07c1,.86,2.05,1.67,3,2.44l37.37-42-8.07-6.8L10.65,72.3C11.63,73.21,12.67,74.14,13.77,75.07Z"/><path class="cls-2" d="M21,80.46a40.38,40.38,0,0,0,5.73,3.2L65.84,45.29l-7.67-6.47Z"/><path class="cls-2" d="M3,63.59a41,41,0,0,0,4.1,5.12L42.13,25.32l-7.66-6.46Z"/><path class="cls-3" d="M31,86c-4.16,0-11.49-4.58-18-10A62.65,62.65,0,0,1,2.64,65.12C0,61.43-.66,58.77.64,57.23l7-10.16a1.12,1.12,0,0,1,1.56-.28,1.11,1.11,0,0,1,.28,1.55l-7,10.25c-.3.36-.38,1.83,2,5.24a60.59,60.59,0,0,0,10,10.38c9.69,8.16,16.47,10.4,17.39,9.31l.07-.08L68,48.55,30.86,17.29l-9.5,13.76a1.12,1.12,0,0,1-1.84-1.27l9.93-14.39a1.51,1.51,0,0,1,2.24-.32L70,47.36a1.52,1.52,0,0,1,.54,1.15A1.54,1.54,0,0,1,70,49.68L33.55,85A3.19,3.19,0,0,1,31,86ZM68.54,48l0,0ZM31.34,16.59l-.06.09Z"/><path class="cls-3" d="M13.21,42.07a1.18,1.18,0,0,1-.64-.2,1.13,1.13,0,0,1-.28-1.56l4.83-7A1.12,1.12,0,1,1,19,34.56l-4.83,7A1.12,1.12,0,0,1,13.21,42.07Z"/><path class="cls-4" d="M69.48,48.75c-1.33,1.57-11.13-4.56-21.87-13.69s-18.37-17.82-17-19.39,11.14,4.55,21.88,13.69S70.82,47.17,69.48,48.75Z"/><path class="cls-3" d="M68.84,50.11c-1.25,0-3.4-.77-7.36-3.24a133.61,133.61,0,0,1-14.6-11A132.91,132.91,0,0,1,33.72,23.27c-5-5.65-4.8-7.38-4-8.33,3-3.52,20.07,10.68,23.46,13.56A134,134,0,0,1,66.34,41.15c5,5.64,4.8,7.37,4,8.32h0A1.82,1.82,0,0,1,68.84,50.11ZM31.62,16.56c.74,2.14,6.59,9,16.71,17.65S66.21,47.47,68.44,47.86c-.74-2.14-6.59-9-16.71-17.65S33.85,16.94,31.62,16.56Z"/><path class="cls-2" d="M52.16,24.15a4.77,4.77,0,1,1-.55-6.73A4.77,4.77,0,0,1,52.16,24.15Z"/><path class="cls-2" d="M58.87,23.44a4.77,4.77,0,1,1-.54-6.73A4.78,4.78,0,0,1,58.87,23.44Z"/><path class="cls-2" d="M57,28.88a4.77,4.77,0,1,1-.55-6.73A4.77,4.77,0,0,1,57,28.88Z"/><path class="cls-2" d="M55.09,32.87a4.77,4.77,0,0,0-.1-4.66,4.55,4.55,0,0,0,.78-1.05,4.77,4.77,0,1,0-8.41-4.51s0,.07,0,.11a4.77,4.77,0,0,0-4.42,8.45c1.06.58,1.79,1.72,2.88,1.47.29,1.31,1.57,1.45,2.85,2.14A4.78,4.78,0,0,0,55.09,32.87Z"/><path class="cls-2" d="M61.93,35.08a4.77,4.77,0,0,0-.1-4.66,4.9,4.9,0,0,0,.79-1.05,4.77,4.77,0,1,0-8.41-4.51.61.61,0,0,0-.05.12,4.77,4.77,0,1,0-1.08,8.87,4.76,4.76,0,0,0,8.85,1.23Z"/><path class="cls-2" d="M45.05,21.88a3.76,3.76,0,0,0,.85-.75,4.15,4.15,0,1,0-6.33-5.38l-.06.08a4.15,4.15,0,0,0-5.31,6.39,4.11,4.11,0,0,0,2.76,1,4.15,4.15,0,1,0,8.09-1.32Z"/><path class="cls-3" d="M35.81,24.18a1,1,0,0,1-.29,0,5.14,5.14,0,0,1-2-1.07,5.28,5.28,0,0,1-.61-7.43,5.33,5.33,0,0,1,6.48-1.25,5.28,5.28,0,0,1,3-1.21,5.27,5.27,0,0,1,4.78,8.23,1.12,1.12,0,0,1-1.85-1.26,3,3,0,0,0-4.82-3.68l-.7.83-.92-.6a3,3,0,0,0-4.94,2.6,3.08,3.08,0,0,0,1.06,2.07A3,3,0,0,0,36.1,22a1.12,1.12,0,0,1-.29,2.2Z"/><path class="cls-2" d="M61.16,37.08c1,7.24-8.27,2.48-11,.16S49,31.41,51.27,28.68a6.49,6.49,0,0,1,9.15-.74C63.15,30.26,60.65,33.54,61.16,37.08Z"/><path class="cls-2" d="M54.76,15a4.24,4.24,0,1,1-.48-6A4.23,4.23,0,0,1,54.76,15Z"/><path class="cls-2" d="M65.45,29a6,6,0,1,1-.68-8.44A6,6,0,0,1,65.45,29Z"/><path class="cls-2" d="M63.8,41.29a5,5,0,1,1-.57-7A5,5,0,0,1,63.8,41.29Z"/><path class="cls-2" d="M65.59,43.8a3.49,3.49,0,1,1-.39-4.92A3.49,3.49,0,0,1,65.59,43.8Z"/><path class="cls-2" d="M58.94,17.88a2.49,2.49,0,1,1-.28-3.51A2.49,2.49,0,0,1,58.94,17.88Z"/><path class="cls-2" d="M71.13,33.44a6.35,6.35,0,1,1-6.85-5.81A6.37,6.37,0,0,1,71.13,33.44Z"/><path class="cls-2" d="M61,15a6.35,6.35,0,1,1-6.84-5.82A6.35,6.35,0,0,1,61,15Z"/><path class="cls-2" d="M71.06,17.34a6.35,6.35,0,1,1-6.84-5.81A6.36,6.36,0,0,1,71.06,17.34Z"/><path class="cls-2" d="M80.54,27.37a4.2,4.2,0,0,0-3.13-1,5.48,5.48,0,0,0,0-.7A6.33,6.33,0,0,0,76,22.16a4.62,4.62,0,0,0,.74-.67,4.23,4.23,0,0,0-4.89-6.63c.09-.09.18-.16.26-.25a4.24,4.24,0,0,0-5.73-6.16.81.81,0,0,0-.09-.1,4.23,4.23,0,0,0-2.4-1c0-.14,0-.27,0-.41A6.35,6.35,0,1,0,58,13.8a6.45,6.45,0,0,0,1.67-.37,4.29,4.29,0,0,0,1.07,1.39A4.24,4.24,0,0,0,66,15l.09.09a4.23,4.23,0,0,0,4.4.66,3,3,0,0,0-.26.25,4.2,4.2,0,0,0-.78,4.06,6.34,6.34,0,0,0,2.12,12.46,6.18,6.18,0,0,0,2.2-.59,4.24,4.24,0,1,0,6.76-4.56Z"/><path class="cls-3" d="M80.09,35.29a1.12,1.12,0,0,1-.6-2.06,3.58,3.58,0,0,0,.69-.6,3.12,3.12,0,0,0-2.66-5.13l-1.26.11,0-1.26a5.72,5.72,0,0,0,0-.58,5.17,5.17,0,0,0-1.17-2.9L74.35,22l1-.7a2.9,2.9,0,0,0,.54-.49,3.11,3.11,0,0,0-3.59-4.88l-5.34,2.27,4.25-4.22A3.06,3.06,0,0,0,72,11.61,3.11,3.11,0,0,0,67,9.35l-.73.53-.81-.74a3.16,3.16,0,0,0-1.7-.66l-1-.08,0-1a3.13,3.13,0,0,0,0-.35,5.23,5.23,0,0,0-10.38-.41,1.11,1.11,0,1,1-2.2-.36,7.47,7.47,0,0,1,14.76.15,5.3,5.3,0,0,1,1.52.67,5.35,5.35,0,0,1,7.76,4.34,5.46,5.46,0,0,1-.21,2,5.35,5.35,0,0,1,3.58,8.8l-.1.12a7.36,7.36,0,0,1,1,3,5.35,5.35,0,0,1,3.4,8.78,5.07,5.07,0,0,1-1.18,1A1.14,1.14,0,0,1,80.09,35.29Z"/><path class="cls-2" d="M78.39,35.69a6.35,6.35,0,1,0-12.66,1,6.11,6.11,0,0,0,.33,1.55,3.37,3.37,0,0,0-1.54,1,3.5,3.5,0,0,0-.77,2.84l-.06.06a2.49,2.49,0,0,0,3.8,3.23,2.21,2.21,0,0,0,.3-.45,3.47,3.47,0,0,0,2-1.16,3.38,3.38,0,0,0,.72-1.44,6.35,6.35,0,0,0,7.83-6.68Z"/><path class="cls-3" d="M65.59,47.41a3.6,3.6,0,0,1-2.34-.86,1.12,1.12,0,0,1,1.45-1.7,1.33,1.33,0,0,0,1,.32,1.37,1.37,0,0,0,.93-.48,1.46,1.46,0,0,0,.17-.24l.25-.48.54-.1A2.34,2.34,0,0,0,69,43.09a2.31,2.31,0,0,0,.48-1L69.74,41l1.08.26a4.91,4.91,0,0,0,1.66.13,5.22,5.22,0,0,0,4.79-5.63A5.32,5.32,0,0,0,76.8,34a1.12,1.12,0,1,1,2-.95,7.46,7.46,0,0,1-6.16,10.61,7,7,0,0,1-1.37,0,4.22,4.22,0,0,1-.6.91A4.49,4.49,0,0,1,68.49,46a1.33,1.33,0,0,1-.14.19,3.59,3.59,0,0,1-2.46,1.26Z"/><path class="cls-2" d="M71.49,19.35a3.74,3.74,0,1,1-.43-5.28A3.75,3.75,0,0,1,71.49,19.35Z"/><path class="cls-3" d="M60,38.12a1.13,1.13,0,0,1-1-.58A1.12,1.12,0,0,1,59.5,36a3.65,3.65,0,0,0,1.36-5l-.43-.73.59-.61a3.58,3.58,0,0,0,.61-.79,3.66,3.66,0,0,0,.28-2.79,3.66,3.66,0,0,0-6.72-.67s0,0,0,.08l-.5,1-1-.52a3.7,3.7,0,0,0-1.63-.4,1.12,1.12,0,0,1,0-2.23h0a5.68,5.68,0,0,1,1.65.25,5.89,5.89,0,0,1,10.36,1.83,5.79,5.79,0,0,1-.45,4.48,5.72,5.72,0,0,1-.44.69A5.89,5.89,0,0,1,60.58,38,1.14,1.14,0,0,1,60,38.12Z"/><path class="cls-3" d="M68.84,50.11c-1.25,0-3.4-.77-7.36-3.24a133.61,133.61,0,0,1-14.6-11A132.91,132.91,0,0,1,33.72,23.27c-5-5.65-4.8-7.38-4-8.33a2.06,2.06,0,0,1,1.83-.63,1.12,1.12,0,0,1,.06,2.23c.71,2.12,6.57,9,16.72,17.67S66.25,47.5,68.46,47.86a1.12,1.12,0,0,1,2.2-.3,2,2,0,0,1-.32,1.91A1.82,1.82,0,0,1,68.84,50.11Z"/><path class="cls-5" d="M69.32,48.21l-4.19-3.52C47.86,64,23.35,70.42,9.74,58.85a22.88,22.88,0,0,1-4.87-5.79L1.5,58c-1.85,2.19,3.23,9.5,12.27,17.12s17.12,11.36,19,9.17L69.32,48.82A.4.4,0,0,0,69.32,48.21Z"/><path class="cls-6" d="M54.35,7.31a1.14,1.14,0,0,1-.54-.14,1.11,1.11,0,0,1-.44-1.51,5.44,5.44,0,0,1,3.19-2.59,4.37,4.37,0,0,1,3.55.78A1.12,1.12,0,0,1,58.86,5.7a2.18,2.18,0,0,0-1.76-.46,3.28,3.28,0,0,0-1.77,1.49A1.13,1.13,0,0,1,54.35,7.31Z"/><path class="cls-6" d="M61,29.53a1.13,1.13,0,0,1-1.12-1.05,2.2,2.2,0,0,0-.71-1.67,3.31,3.31,0,0,0-2.26-.5,1.11,1.11,0,0,1-.35-2.2,5.46,5.46,0,0,1,4,.95,4.31,4.31,0,0,1,1.55,3.28A1.12,1.12,0,0,1,61,29.53Z"/><path class="cls-6" d="M12.08,49.19a1.11,1.11,0,0,1-.63-.19,1.12,1.12,0,0,1-.29-1.56l10.22-14.9a1.12,1.12,0,0,1,1.84,1.26L13,48.71A1.14,1.14,0,0,1,12.08,49.19Z"/><path class="cls-6" d="M25.41,29.74a1.16,1.16,0,0,1-.63-.19A1.12,1.12,0,0,1,24.49,28l3-4.4a1.12,1.12,0,1,1,1.84,1.26l-3,4.41A1.14,1.14,0,0,1,25.41,29.74Z"/></g></g></g></svg>