<?xml version="1.0" encoding="UTF-8" standalone="no"?> <svg width="64" height="64" viewBox="0 0 64 64" fill="none" xmlns="http://www.w3.org/2000/svg">
<path d="M32 2.75C26.2149 2.75 20.5597 4.46548 15.7496 7.67951C10.9394 10.8935 7.1904 15.4618 4.97654 20.8065C2.76267 26.1512 2.18343 32.0324 3.31204 37.7064C4.44066 43.3803 7.22645 48.5922 11.3171 52.6829C15.4078 56.7736 20.6197 59.5594 26.2936 60.688C31.9676 61.8166 37.8488 61.2373 43.1935 59.0235C48.5382 56.8096 53.1065 53.0606 56.3205 48.2504C59.5345 43.4403 61.25 37.7851 61.25 32C61.2421 24.2449 58.1578 16.8096 52.6741 11.3259C47.1904 5.84218 39.7552 2.75794 32 2.75V2.75ZM32 34.93C30.4 34.93 28.8358 34.4555 27.5054 33.5666C26.1751 32.6776 25.1381 31.4142 24.5258 29.9359C23.9135 28.4577 23.7533 26.831 24.0655 25.2617C24.3776 23.6924 25.1481 22.2509 26.2795 21.1195C27.4109 19.9881 28.8524 19.2176 30.4217 18.9054C31.991 18.5933 33.6177 18.7535 35.0959 19.3658C36.5742 19.9781 37.8377 21.015 38.7266 22.3454C39.6155 23.6758 40.09 25.2399 40.09 26.84C40.0874 28.9848 39.2342 31.041 37.7176 32.5576C36.201 34.0742 34.1448 34.9274 32 34.93V34.93ZM37.81 35.69C39.7158 34.4394 41.1672 32.6073 41.9485 30.4659C42.7298 28.3245 42.7993 25.9882 42.1467 23.8042C41.4941 21.6201 40.1542 19.7049 38.3262 18.3433C36.4981 16.9816 34.2795 16.2461 32 16.2461C29.7206 16.2461 27.5019 16.9816 25.6739 18.3433C23.8458 19.7049 22.5059 21.6201 21.8533 23.8042C21.2007 25.9882 21.2702 28.3245 22.0515 30.4659C22.8328 32.6073 24.2842 34.4394 26.19 35.69C22.8543 36.5609 19.76 38.1782 17.1407 40.4198C14.5215 42.6615 12.4457 45.4688 11.07 48.63C7.9357 44.6919 5.97599 39.9495 5.41606 34.9476C4.85613 29.9458 5.71871 24.8874 7.90467 20.3538C10.0906 15.8201 13.5113 11.9952 17.7736 9.31845C22.0359 6.6417 26.9669 5.22174 32 5.22174C37.0331 5.22174 41.9641 6.6417 46.2264 9.31845C50.4887 11.9952 53.9094 15.8201 56.0954 20.3538C58.2813 24.8874 59.1439 29.9458 58.584 34.9476C58.024 39.9495 56.0643 44.6919 52.93 48.63C51.5544 45.4688 49.4786 42.6615 46.8593 40.4198C44.24 38.1782 41.1457 36.5609 37.81 35.69V35.69Z" fill="black"/>
</svg>
